<svg width="285" height="49" viewBox="0 0 285 49" fill="none" xmlns="http://www.w3.org/2000/svg">
<path d="M0 7.02679V41.3227C0 45.1907 3.15882 48.3495 7.02678 48.3495V14.247L26.7534 45.2551V35.972C26.7534 33.3289 26.0442 30.6858 24.626 28.4295L7.02678 0.0644684V0C3.15882 0 0 3.15883 0 7.02679ZM29.9122 48.3495C33.8446 48.3495 37.0035 45.1907 37.0035 41.3227V7.02679C37.0035 3.15883 33.8446 0 29.9122 0V48.3495Z" fill="#00FF99"/>
<path d="M59.8354 48.3495V7.09125C59.8354 3.15883 56.6766 0 52.7441 0V41.2582C52.7441 45.1906 55.903 48.3495 59.8354 48.3495Z" fill="#00FF99"/>
<path d="M72.9971 34.8761H102.458C100.717 30.5569 96.5272 27.7848 91.8856 27.7848H84.2142L93.3683 8.96077L102.265 27.7204C104.392 32.1685 108.84 34.9406 113.74 34.9406L97.1074 0H89.5648L72.9971 34.8761ZM73.126 41.2582C73.126 45.1906 76.3493 48.3495 80.2173 48.3495H113.74C113.74 44.4171 110.581 41.2582 106.648 41.2582H73.126Z" fill="#00FF99"/>
<path d="M129.415 48.3495C131.994 48.3495 134.379 46.9312 135.604 44.6749L160.036 0H155.524C153.01 0 150.624 1.41825 149.399 3.67456L124.967 48.3495H129.415ZM153.525 48.3495C157.458 48.3495 160.617 45.1907 160.617 41.2582H145.983C143.404 41.2582 141.019 42.6765 139.73 44.9973L137.86 48.3495H153.525ZM124.967 7.09126H139.02C141.599 7.09126 143.984 5.67301 145.274 3.35223L147.079 0H132.058C128.126 0 124.967 3.15883 124.967 7.09126Z" fill="#00FF99"/>
<path d="M171.845 34.8761H201.306C199.565 30.5569 195.375 27.7848 190.733 27.7848H183.062L192.216 8.96077L201.112 27.7204C203.24 32.1685 207.688 34.9406 212.587 34.9406L195.955 0H188.412L171.845 34.8761ZM171.974 41.2582C171.974 45.1906 175.197 48.3495 179.065 48.3495H212.587C212.587 44.4171 209.428 41.2582 205.496 41.2582H171.974Z" fill="#00FF99"/>
<path d="M223.815 34.8761H253.276C251.536 30.5569 247.346 27.7848 242.704 27.7848H235.033L244.187 8.96077L253.083 27.7204C255.21 32.1685 259.659 34.9406 264.558 34.9406L247.926 0H240.383L223.815 34.8761ZM223.944 41.2582C223.944 45.1906 227.168 48.3495 231.036 48.3495H264.558C264.558 44.4171 261.399 41.2582 257.467 41.2582H223.944Z" fill="#00FF99"/>
<path d="M284.811 48.3495V7.09125C284.811 3.15883 281.652 0 277.72 0V41.2582C277.72 45.1906 280.879 48.3495 284.811 48.3495Z" fill="#00FF99"/>
</svg>
